<?xml version="1.0" encoding="UTF-8" standalone="no"?>
<!DOCTYPE svg PUBLIC "-//W3C//DTD SVG 1.1//EN"
 "http://www.w3.org/Graphics/SVG/1.1/DTD/svg11.dtd">
<!-- Generated by graphviz version 2.36.0 (20140111.2315)
 -->
<!-- Title: G Pages: 1 -->
<svg width="657pt" height="308pt"
 viewBox="0.00 0.00 657.00 308.00" xmlns="http://www.w3.org/2000/svg" xmlns:xlink="http://www.w3.org/1999/xlink">
<g id="graph0" class="graph" transform="scale(1 1) rotate(0) translate(4 304)">
<title>G</title>
<polygon fill="white" stroke="none" points="-4,4 -4,-304 653,-304 653,4 -4,4"/>
<!-- InplaceDimShuffle{x,0} -->
<g id="node1" class="node"><title>InplaceDimShuffle{x,0}</title>
<ellipse fill="none" stroke="black" cx="494" cy="-194" rx="98.1881" ry="18"/>
<text text-anchor="middle" x="494" y="-190.3" font-family="Times,serif" font-size="14.00">InplaceDimShuffle{x,0}</text>
</g>
<!-- Elemwise{Add}[(0, 0)] -->
<g id="node6" class="node"><title>Elemwise{Add}[(0, 0)]</title>
<ellipse fill="#ffaabb" stroke="black" cx="391" cy="-106" rx="94.338" ry="18"/>
<text text-anchor="middle" x="391" y="-102.3" font-family="Times,serif" font-size="14.00">Elemwise{Add}[(0, 0)]</text>
</g>
<!-- InplaceDimShuffle{x,0}&#45;&gt;Elemwise{Add}[(0, 0)] -->
<g id="edge5" class="edge"><title>InplaceDimShuffle{x,0}&#45;&gt;Elemwise{Add}[(0, 0)]</title>
<path fill="none" stroke="black" d="M487.337,-175.615C482.484,-164.819 475.007,-151.281 465,-142 458.709,-136.165 451.269,-131.136 443.573,-126.857"/>
<polygon fill="black" stroke="black" points="444.966,-123.638 434.473,-122.174 441.764,-129.862 444.966,-123.638"/>
<text text-anchor="middle" x="554" y="-146.3" font-family="Times,serif" font-size="14.00">1 TensorType(float32, row)</text>
</g>
<!-- TensorType(float32, vector) -->
<g id="node2" class="node"><title>TensorType(float32, vector)</title>
<polygon fill="green" stroke="black" points="581,-300 411,-300 411,-264 581,-264 581,-300"/>
<text text-anchor="middle" x="496" y="-278.3" font-family="Times,serif" font-size="14.00">TensorType(float32, vector)</text>
</g>
<!-- TensorType(float32, vector)&#45;&gt;InplaceDimShuffle{x,0} -->
<g id="edge1" class="edge"><title>TensorType(float32, vector)&#45;&gt;InplaceDimShuffle{x,0}</title>
<path fill="none" stroke="blue" d="M495.595,-263.597C495.32,-251.746 494.949,-235.817 494.635,-222.292"/>
<polygon fill="blue" stroke="blue" points="498.129,-222 494.397,-212.084 491.131,-222.163 498.129,-222"/>
<text text-anchor="middle" x="572" y="-234.3" font-family="Times,serif" font-size="14.00">TensorType(float32, vector)</text>
</g>
<!-- Dot22 -->
<g id="node3" class="node"><title>Dot22</title>
<ellipse fill="none" stroke="black" cx="292" cy="-194" rx="32.2457" ry="18"/>
<text text-anchor="middle" x="292" y="-190.3" font-family="Times,serif" font-size="14.00">Dot22</text>
</g>
<!-- Dot22&#45;&gt;Elemwise{Add}[(0, 0)] -->
<g id="edge4" class="edge"><title>Dot22&#45;&gt;Elemwise{Add}[(0, 0)]</title>
<path fill="none" stroke="red" d="M289.773,-175.702C289.339,-164.941 290.638,-151.408 298,-142 303.777,-134.617 311.293,-128.791 319.548,-124.194"/>
<polygon fill="red" stroke="red" points="321.318,-127.224 328.749,-119.673 318.23,-120.942 321.318,-127.224"/>
<text text-anchor="middle" x="381.5" y="-146.3" font-family="Times,serif" font-size="14.00">0 TensorType(float32, matrix)</text>
</g>
<!-- TensorType(float32, matrix) -->
<g id="node4" class="node"><title>TensorType(float32, matrix)</title>
<polygon fill="green" stroke="black" points="172.25,-300 -0.25,-300 -0.25,-264 172.25,-264 172.25,-300"/>
<text text-anchor="middle" x="86" y="-278.3" font-family="Times,serif" font-size="14.00">TensorType(float32, matrix)</text>
</g>
<!-- TensorType(float32, matrix)&#45;&gt;Dot22 -->
<g id="edge2" class="edge"><title>TensorType(float32, matrix)&#45;&gt;Dot22</title>
<path fill="none" stroke="black" d="M93.5816,-263.703C99.4442,-252.371 108.65,-238.191 121,-230 159.385,-204.542 212.47,-196.977 249.268,-195.031"/>
<polygon fill="black" stroke="black" points="249.81,-198.512 259.659,-194.607 249.525,-191.518 249.81,-198.512"/>
<text text-anchor="middle" x="204.5" y="-234.3" font-family="Times,serif" font-size="14.00">0 TensorType(float32, matrix)</text>
</g>
<!-- TensorType(float32, matrix) id=3 -->
<g id="node5" class="node"><title>TensorType(float32, matrix) id=3</title>
<polygon fill="green" stroke="black" points="393,-300 191,-300 191,-264 393,-264 393,-300"/>
<text text-anchor="middle" x="292" y="-278.3" font-family="Times,serif" font-size="14.00">TensorType(float32, matrix) id=3</text>
</g>
<!-- TensorType(float32, matrix) id=3&#45;&gt;Dot22 -->
<g id="edge3" class="edge"><title>TensorType(float32, matrix) id=3&#45;&gt;Dot22</title>
<path fill="none" stroke="black" d="M292,-263.597C292,-251.746 292,-235.817 292,-222.292"/>
<polygon fill="black" stroke="black" points="295.5,-222.084 292,-212.084 288.5,-222.084 295.5,-222.084"/>
<text text-anchor="middle" x="375.5" y="-234.3" font-family="Times,serif" font-size="14.00">1 TensorType(float32, matrix)</text>
</g>
<!-- TensorType(float32, matrix) id=5 -->
<g id="node7" class="node"><title>TensorType(float32, matrix) id=5</title>
<polygon fill="blue" stroke="black" points="492,-36 290,-36 290,-0 492,-0 492,-36"/>
<text text-anchor="middle" x="391" y="-14.3" font-family="Times,serif" font-size="14.00">TensorType(float32, matrix) id=5</text>
</g>
<!-- Elemwise{Add}[(0, 0)]&#45;&gt;TensorType(float32, matrix) id=5 -->
<g id="edge6" class="edge"><title>Elemwise{Add}[(0, 0)]&#45;&gt;TensorType(float32, matrix) id=5</title>
<path fill="none" stroke="black" d="M391,-87.5966C391,-75.7459 391,-59.8169 391,-46.2917"/>
<polygon fill="black" stroke="black" points="394.5,-46.084 391,-36.084 387.5,-46.084 394.5,-46.084"/>
<text text-anchor="middle" x="469.5" y="-58.3" font-family="Times,serif" font-size="14.00">TensorType(float32, matrix)</text>
</g>
</g>
</svg>
