<?xml version="1.0" encoding="UTF-8" standalone="no"?>
<!DOCTYPE svg PUBLIC "-//W3C//DTD SVG 1.1//EN"
 "http://www.w3.org/Graphics/SVG/1.1/DTD/svg11.dtd">
<!-- Generated by graphviz version 2.36.0 (20140111.2315)
 -->
<!-- Title: G Pages: 1 -->
<svg width="998pt" height="1276pt"
 viewBox="0.00 0.00 998.00 1276.00" xmlns="http://www.w3.org/2000/svg" xmlns:xlink="http://www.w3.org/1999/xlink">
<g id="graph0" class="graph" transform="scale(1 1) rotate(0) translate(4 1272)">
<title>G</title>
<polygon fill="white" stroke="none" points="-4,4 -4,-1272 994,-1272 994,4 -4,4"/>
<!-- InplaceDimShuffle{x,0} -->
<g id="node1" class="node"><title>InplaceDimShuffle{x,0}</title>
<ellipse fill="none" stroke="black" cx="834" cy="-194" rx="98.1881" ry="18"/>
<text text-anchor="middle" x="834" y="-190.3" font-family="Times,serif" font-size="14.00">InplaceDimShuffle{x,0}</text>
</g>
<!-- Elemwise{Add}[(0, 0)] id=15 -->
<g id="node25" class="node"><title>Elemwise{Add}[(0, 0)] id=15</title>
<ellipse fill="#ffaabb" stroke="black" cx="729" cy="-106" rx="117.935" ry="18"/>
<text text-anchor="middle" x="729" y="-102.3" font-family="Times,serif" font-size="14.00">Elemwise{Add}[(0, 0)] id=15</text>
</g>
<!-- InplaceDimShuffle{x,0}&#45;&gt;Elemwise{Add}[(0, 0)] id=15 -->
<g id="edge24" class="edge"><title>InplaceDimShuffle{x,0}&#45;&gt;Elemwise{Add}[(0, 0)] id=15</title>
<path fill="none" stroke="black" d="M826.618,-175.623C821.327,-164.83 813.317,-151.292 803,-142 796.776,-136.394 789.496,-131.515 781.976,-127.324"/>
<polygon fill="black" stroke="black" points="783.575,-124.211 773.086,-122.718 780.355,-130.426 783.575,-124.211"/>
<text text-anchor="middle" x="892" y="-146.3" font-family="Times,serif" font-size="14.00">1 TensorType(float32, row)</text>
</g>
<!-- TensorType(float32, vector) -->
<g id="node2" class="node"><title>TensorType(float32, vector)</title>
<polygon fill="green" stroke="black" points="922,-300 752,-300 752,-264 922,-264 922,-300"/>
<text text-anchor="middle" x="837" y="-278.3" font-family="Times,serif" font-size="14.00">TensorType(float32, vector)</text>
</g>
<!-- TensorType(float32, vector)&#45;&gt;InplaceDimShuffle{x,0} -->
<g id="edge1" class="edge"><title>TensorType(float32, vector)&#45;&gt;InplaceDimShuffle{x,0}</title>
<path fill="none" stroke="blue" d="M836.393,-263.597C835.98,-251.746 835.424,-235.817 834.952,-222.292"/>
<polygon fill="blue" stroke="blue" points="838.443,-221.956 834.596,-212.084 831.447,-222.2 838.443,-221.956"/>
<text text-anchor="middle" x="913" y="-234.3" font-family="Times,serif" font-size="14.00">TensorType(float32, vector)</text>
</g>
<!-- InplaceDimShuffle{x,0,x,x} -->
<g id="node3" class="node"><title>InplaceDimShuffle{x,0,x,x}</title>
<ellipse fill="none" stroke="black" cx="226" cy="-546" rx="112.16" ry="18"/>
<text text-anchor="middle" x="226" y="-542.3" font-family="Times,serif" font-size="14.00">InplaceDimShuffle{x,0,x,x}</text>
</g>
<!-- Elemwise{Add}[(0, 0)] id=11 -->
<g id="node20" class="node"><title>Elemwise{Add}[(0, 0)] id=11</title>
<ellipse fill="#ffaabb" stroke="black" cx="385" cy="-458" rx="117.935" ry="18"/>
<text text-anchor="middle" x="385" y="-454.3" font-family="Times,serif" font-size="14.00">Elemwise{Add}[(0, 0)] id=11</text>
</g>
<!-- InplaceDimShuffle{x,0,x,x}&#45;&gt;Elemwise{Add}[(0, 0)] id=11 -->
<g id="edge18" class="edge"><title>InplaceDimShuffle{x,0,x,x}&#45;&gt;Elemwise{Add}[(0, 0)] id=11</title>
<path fill="none" stroke="black" d="M237.155,-527.608C245.088,-516.529 256.673,-502.678 270,-494 281.399,-486.577 294.448,-480.666 307.569,-475.976"/>
<polygon fill="black" stroke="black" points="308.745,-479.273 317.112,-472.774 306.518,-472.637 308.745,-479.273"/>
<text text-anchor="middle" x="404" y="-498.3" font-family="Times,serif" font-size="14.00">1 TensorType(float32, (True, False, True, True))</text>
</g>
<!-- TensorType(float32, vector) id=2 -->
<g id="node4" class="node"><title>TensorType(float32, vector) id=2</title>
<polygon fill="green" stroke="black" points="323,-652 123,-652 123,-616 323,-616 323,-652"/>
<text text-anchor="middle" x="223" y="-630.3" font-family="Times,serif" font-size="14.00">TensorType(float32, vector) id=2</text>
</g>
<!-- TensorType(float32, vector) id=2&#45;&gt;InplaceDimShuffle{x,0,x,x} -->
<g id="edge2" class="edge"><title>TensorType(float32, vector) id=2&#45;&gt;InplaceDimShuffle{x,0,x,x}</title>
<path fill="none" stroke="blue" d="M223.607,-615.597C224.02,-603.746 224.576,-587.817 225.048,-574.292"/>
<polygon fill="blue" stroke="blue" points="228.553,-574.2 225.404,-564.084 221.557,-573.956 228.553,-574.2"/>
<text text-anchor="middle" x="302" y="-586.3" font-family="Times,serif" font-size="14.00">TensorType(float32, vector)</text>
</g>
<!-- InplaceDimShuffle{x,0,x,x} id=2 -->
<g id="node5" class="node"><title>InplaceDimShuffle{x,0,x,x} id=2</title>
<ellipse fill="none" stroke="black" cx="131" cy="-986" rx="130.933" ry="18"/>
<text text-anchor="middle" x="131" y="-982.3" font-family="Times,serif" font-size="14.00">InplaceDimShuffle{x,0,x,x} id=2</text>
</g>
<!-- Elemwise{Add}[(0, 0)] -->
<g id="node13" class="node"><title>Elemwise{Add}[(0, 0)]</title>
<ellipse fill="#ffaabb" stroke="black" cx="289" cy="-898" rx="94.338" ry="18"/>
<text text-anchor="middle" x="289" y="-894.3" font-family="Times,serif" font-size="14.00">Elemwise{Add}[(0, 0)]</text>
</g>
<!-- InplaceDimShuffle{x,0,x,x} id=2&#45;&gt;Elemwise{Add}[(0, 0)] -->
<g id="edge10" class="edge"><title>InplaceDimShuffle{x,0,x,x} id=2&#45;&gt;Elemwise{Add}[(0, 0)]</title>
<path fill="none" stroke="black" d="M140.475,-968.047C147.537,-956.868 158.158,-942.73 171,-934 183.612,-925.427 198.363,-918.914 213.079,-913.978"/>
<polygon fill="black" stroke="black" points="214.227,-917.286 222.723,-910.957 212.134,-910.607 214.227,-917.286"/>
<text text-anchor="middle" x="305" y="-938.3" font-family="Times,serif" font-size="14.00">1 TensorType(float32, (True, False, True, True))</text>
</g>
<!-- TensorType(float32, vector) id=4 -->
<g id="node6" class="node"><title>TensorType(float32, vector) id=4</title>
<polygon fill="green" stroke="black" points="227,-1092 27,-1092 27,-1056 227,-1056 227,-1092"/>
<text text-anchor="middle" x="127" y="-1070.3" font-family="Times,serif" font-size="14.00">TensorType(float32, vector) id=4</text>
</g>
<!-- TensorType(float32, vector) id=4&#45;&gt;InplaceDimShuffle{x,0,x,x} id=2 -->
<g id="edge3" class="edge"><title>TensorType(float32, vector) id=4&#45;&gt;InplaceDimShuffle{x,0,x,x} id=2</title>
<path fill="none" stroke="blue" d="M127.809,-1055.6C128.361,-1043.75 129.102,-1027.82 129.731,-1014.29"/>
<polygon fill="blue" stroke="blue" points="133.237,-1014.24 130.205,-1004.08 126.244,-1013.91 133.237,-1014.24"/>
<text text-anchor="middle" x="207" y="-1026.3" font-family="Times,serif" font-size="14.00">TensorType(float32, vector)</text>
</g>
<!-- Reshape{4} -->
<g id="node7" class="node"><title>Reshape{4}</title>
<ellipse fill="none" stroke="black" cx="341" cy="-1162" rx="53.4184" ry="18"/>
<text text-anchor="middle" x="341" y="-1158.3" font-family="Times,serif" font-size="14.00">Reshape{4}</text>
</g>
<!-- ConvOp{(&#39;imshp&#39;, (1, 1, 36)),(&#39;kshp&#39;, (1, 11)),(&#39;nkern&#39;, 24),(&#39;bsiz... -->
<g id="node10" class="node"><title>ConvOp{(&#39;imshp&#39;, (1, 1, 36)),(&#39;kshp&#39;, (1, 11)),(&#39;nkern&#39;, 24),(&#39;bsiz...</title>
<ellipse fill="none" stroke="black" cx="488" cy="-1074" rx="243.118" ry="18"/>
<text text-anchor="middle" x="488" y="-1070.3" font-family="Times,serif" font-size="14.00">ConvOp{(&#39;imshp&#39;, (1, 1, 36)),(&#39;kshp&#39;, (1, 11)),(&#39;nkern&#39;, 24),(&#39;bsiz...</text>
</g>
<!-- Reshape{4}&#45;&gt;ConvOp{(&#39;imshp&#39;, (1, 1, 36)),(&#39;kshp&#39;, (1, 11)),(&#39;nkern&#39;, 24),(&#39;bsiz... -->
<g id="edge6" class="edge"><title>Reshape{4}&#45;&gt;ConvOp{(&#39;imshp&#39;, (1, 1, 36)),(&#39;kshp&#39;, (1, 11)),(&#39;nkern&#39;, 24),(&#39;bsiz...</title>
<path fill="none" stroke="black" d="M336.396,-1143.59C334.635,-1132.79 334.561,-1119.25 342,-1110 347.413,-1103.27 359.802,-1097.68 375.194,-1093.09"/>
<polygon fill="black" stroke="black" points="376.415,-1096.39 385.13,-1090.36 374.56,-1089.64 376.415,-1096.39"/>
<text text-anchor="middle" x="477.5" y="-1114.3" font-family="Times,serif" font-size="14.00">0 TensorType(float32, (False, True, True, False))</text>
</g>
<!-- TensorType(float32, matrix) -->
<g id="node8" class="node"><title>TensorType(float32, matrix)</title>
<polygon fill="green" stroke="black" points="306.25,-1268 133.75,-1268 133.75,-1232 306.25,-1232 306.25,-1268"/>
<text text-anchor="middle" x="220" y="-1246.3" font-family="Times,serif" font-size="14.00">TensorType(float32, matrix)</text>
</g>
<!-- TensorType(float32, matrix)&#45;&gt;Reshape{4} -->
<g id="edge4" class="edge"><title>TensorType(float32, matrix)&#45;&gt;Reshape{4}</title>
<path fill="none" stroke="blue" d="M235.607,-1231.6C245.626,-1221.06 259.289,-1207.8 273,-1198 281.505,-1191.92 291.213,-1186.27 300.578,-1181.35"/>
<polygon fill="blue" stroke="blue" points="302.429,-1184.34 309.771,-1176.7 299.268,-1178.09 302.429,-1184.34"/>
<text text-anchor="middle" x="356.5" y="-1202.3" font-family="Times,serif" font-size="14.00">0 TensorType(float32, matrix)</text>
</g>
<!-- val=[200 &#160;&#160;1 &#160;&#160;1 &#160;36] TensorType(int64, vector) -->
<g id="node9" class="node"><title>val=[200 &#160;&#160;1 &#160;&#160;1 &#160;36] TensorType(int64, vector)</title>
<polygon fill="green" stroke="black" points="599.25,-1268 324.75,-1268 324.75,-1232 599.25,-1232 599.25,-1268"/>
<text text-anchor="middle" x="462" y="-1246.3" font-family="Times,serif" font-size="14.00">val=[200 &#160;&#160;1 &#160;&#160;1 &#160;36] TensorType(int64, vector)</text>
</g>
<!-- val=[200 &#160;&#160;1 &#160;&#160;1 &#160;36] TensorType(int64, vector)&#45;&gt;Reshape{4} -->
<g id="edge5" class="edge"><title>val=[200 &#160;&#160;1 &#160;&#160;1 &#160;36] TensorType(int64, vector)&#45;&gt;Reshape{4}</title>
<path fill="none" stroke="black" d="M458.345,-1231.79C455.191,-1220.79 449.581,-1206.96 440,-1198 428.147,-1186.92 412.569,-1179.31 397.289,-1174.11"/>
<polygon fill="black" stroke="black" points="397.921,-1170.64 387.333,-1171.02 395.847,-1177.32 397.921,-1170.64"/>
<text text-anchor="middle" x="529" y="-1202.3" font-family="Times,serif" font-size="14.00">1 TensorType(int64, vector)</text>
</g>
<!-- DownsampleFactorMax{(1, 2), (1, 2), True, (0, 0)} -->
<g id="node12" class="node"><title>DownsampleFactorMax{(1, 2), (1, 2), True, (0, 0)}</title>
<ellipse fill="none" stroke="black" cx="483" cy="-986" rx="194.474" ry="18"/>
<text text-anchor="middle" x="483" y="-982.3" font-family="Times,serif" font-size="14.00">DownsampleFactorMax{(1, 2), (1, 2), True, (0, 0)}</text>
</g>
<!-- ConvOp{(&#39;imshp&#39;, (1, 1, 36)),(&#39;kshp&#39;, (1, 11)),(&#39;nkern&#39;, 24),(&#39;bsiz...&#45;&gt;DownsampleFactorMax{(1, 2), (1, 2), True, (0, 0)} -->
<g id="edge8" class="edge"><title>ConvOp{(&#39;imshp&#39;, (1, 1, 36)),(&#39;kshp&#39;, (1, 11)),(&#39;nkern&#39;, 24),(&#39;bsiz...&#45;&gt;DownsampleFactorMax{(1, 2), (1, 2), True, (0, 0)}</title>
<path fill="none" stroke="black" d="M486.988,-1055.6C486.299,-1043.75 485.373,-1027.82 484.587,-1014.29"/>
<polygon fill="black" stroke="black" points="488.068,-1013.86 483.993,-1004.08 481.08,-1014.27 488.068,-1013.86"/>
<text text-anchor="middle" x="617.5" y="-1026.3" font-family="Times,serif" font-size="14.00">TensorType(float32, (False, False, True, False))</text>
</g>
<!-- TensorType(float32, 4D) -->
<g id="node11" class="node"><title>TensorType(float32, 4D)</title>
<polygon fill="green" stroke="black" points="711.25,-1180 558.75,-1180 558.75,-1144 711.25,-1144 711.25,-1180"/>
<text text-anchor="middle" x="635" y="-1158.3" font-family="Times,serif" font-size="14.00">TensorType(float32, 4D)</text>
</g>
<!-- TensorType(float32, 4D)&#45;&gt;ConvOp{(&#39;imshp&#39;, (1, 1, 36)),(&#39;kshp&#39;, (1, 11)),(&#39;nkern&#39;, 24),(&#39;bsiz... -->
<g id="edge7" class="edge"><title>TensorType(float32, 4D)&#45;&gt;ConvOp{(&#39;imshp&#39;, (1, 1, 36)),(&#39;kshp&#39;, (1, 11)),(&#39;nkern&#39;, 24),(&#39;bsiz...</title>
<path fill="none" stroke="black" d="M631.539,-1143.58C628.466,-1132.48 622.874,-1118.63 613,-1110 606.146,-1104.01 598.344,-1099.04 590.062,-1094.91"/>
<polygon fill="black" stroke="black" points="591.463,-1091.71 580.91,-1090.76 588.571,-1098.08 591.463,-1091.71"/>
<text text-anchor="middle" x="699" y="-1114.3" font-family="Times,serif" font-size="14.00">1 TensorType(float32, 4D)</text>
</g>
<!-- DownsampleFactorMax{(1, 2), (1, 2), True, (0, 0)}&#45;&gt;Elemwise{Add}[(0, 0)] -->
<g id="edge9" class="edge"><title>DownsampleFactorMax{(1, 2), (1, 2), True, (0, 0)}&#45;&gt;Elemwise{Add}[(0, 0)]</title>
<path fill="none" stroke="red" d="M472.374,-967.807C464.515,-956.521 452.807,-942.354 439,-934 420.631,-922.887 399.03,-915.302 378.032,-910.125"/>
<polygon fill="red" stroke="red" points="378.646,-906.675 368.116,-907.842 377.076,-913.496 378.646,-906.675"/>
<text text-anchor="middle" x="595" y="-938.3" font-family="Times,serif" font-size="14.00">0 TensorType(float32, (False, False, True, False))</text>
</g>
<!-- Reshape{4} id=7 -->
<g id="node14" class="node"><title>Reshape{4} id=7</title>
<ellipse fill="none" stroke="black" cx="437" cy="-810" rx="72.192" ry="18"/>
<text text-anchor="middle" x="437" y="-806.3" font-family="Times,serif" font-size="14.00">Reshape{4} id=7</text>
</g>
<!-- Elemwise{Add}[(0, 0)]&#45;&gt;Reshape{4} id=7 -->
<g id="edge11" class="edge"><title>Elemwise{Add}[(0, 0)]&#45;&gt;Reshape{4} id=7</title>
<path fill="none" stroke="blue" d="M284.391,-879.587C282.629,-868.78 282.554,-855.24 290,-846 299.655,-834.019 331.327,-825.669 362.811,-820.138"/>
<polygon fill="blue" stroke="blue" points="363.71,-823.537 372.999,-818.441 362.559,-816.632 363.71,-823.537"/>
<text text-anchor="middle" x="427" y="-850.3" font-family="Times,serif" font-size="14.00">0 TensorType(float32, (False, False, True, False))</text>
</g>
<!-- Elemwise{Tanh}[(0, 0)] -->
<g id="node16" class="node"><title>Elemwise{Tanh}[(0, 0)]</title>
<ellipse fill="#ffaabb" stroke="black" cx="437" cy="-722" rx="98.212" ry="18"/>
<text text-anchor="middle" x="437" y="-718.3" font-family="Times,serif" font-size="14.00">Elemwise{Tanh}[(0, 0)]</text>
</g>
<!-- Reshape{4} id=7&#45;&gt;Elemwise{Tanh}[(0, 0)] -->
<g id="edge13" class="edge"><title>Reshape{4} id=7&#45;&gt;Elemwise{Tanh}[(0, 0)]</title>
<path fill="none" stroke="red" d="M437,-791.597C437,-779.746 437,-763.817 437,-750.292"/>
<polygon fill="red" stroke="red" points="440.5,-750.084 437,-740.084 433.5,-750.084 440.5,-750.084"/>
<text text-anchor="middle" x="568.5" y="-762.3" font-family="Times,serif" font-size="14.00">TensorType(float32, (False, False, True, False))</text>
</g>
<!-- val=[200 &#160;24 &#160;&#160;1 &#160;13] TensorType(int64, vector) -->
<g id="node15" class="node"><title>val=[200 &#160;24 &#160;&#160;1 &#160;13] TensorType(int64, vector)</title>
<polygon fill="green" stroke="black" points="725,-916 447,-916 447,-880 725,-880 725,-916"/>
<text text-anchor="middle" x="586" y="-894.3" font-family="Times,serif" font-size="14.00">val=[200 &#160;24 &#160;&#160;1 &#160;13] TensorType(int64, vector)</text>
</g>
<!-- val=[200 &#160;24 &#160;&#160;1 &#160;13] TensorType(int64, vector)&#45;&gt;Reshape{4} id=7 -->
<g id="edge12" class="edge"><title>val=[200 &#160;24 &#160;&#160;1 &#160;13] TensorType(int64, vector)&#45;&gt;Reshape{4} id=7</title>
<path fill="none" stroke="black" d="M582.55,-879.563C579.483,-868.466 573.892,-854.61 564,-846 549.596,-833.463 531.079,-825.381 512.663,-820.181"/>
<polygon fill="black" stroke="black" points="513.324,-816.737 502.768,-817.648 511.588,-823.519 513.324,-816.737"/>
<text text-anchor="middle" x="653" y="-850.3" font-family="Times,serif" font-size="14.00">1 TensorType(int64, vector)</text>
</g>
<!-- ConvOp{(&#39;imshp&#39;, (24, 1, 13)),(&#39;kshp&#39;, (1, 12)),(&#39;nkern&#39;, 24),(&#39;bsi... -->
<g id="node17" class="node"><title>ConvOp{(&#39;imshp&#39;, (24, 1, 13)),(&#39;kshp&#39;, (1, 12)),(&#39;nkern&#39;, 24),(&#39;bsi...</title>
<ellipse fill="none" stroke="black" cx="585" cy="-634" rx="243.592" ry="18"/>
<text text-anchor="middle" x="585" y="-630.3" font-family="Times,serif" font-size="14.00">ConvOp{(&#39;imshp&#39;, (24, 1, 13)),(&#39;kshp&#39;, (1, 12)),(&#39;nkern&#39;, 24),(&#39;bsi...</text>
</g>
<!-- Elemwise{Tanh}[(0, 0)]&#45;&gt;ConvOp{(&#39;imshp&#39;, (24, 1, 13)),(&#39;kshp&#39;, (1, 12)),(&#39;nkern&#39;, 24),(&#39;bsi... -->
<g id="edge14" class="edge"><title>Elemwise{Tanh}[(0, 0)]&#45;&gt;ConvOp{(&#39;imshp&#39;, (24, 1, 13)),(&#39;kshp&#39;, (1, 12)),(&#39;nkern&#39;, 24),(&#39;bsi...</title>
<path fill="none" stroke="black" d="M432.391,-703.587C430.629,-692.78 430.554,-679.24 438,-670 443.453,-663.234 455.928,-657.625 471.427,-653.029"/>
<polygon fill="black" stroke="black" points="472.707,-656.308 481.431,-650.297 470.862,-649.555 472.707,-656.308"/>
<text text-anchor="middle" x="575" y="-674.3" font-family="Times,serif" font-size="14.00">0 TensorType(float32, (False, False, True, False))</text>
</g>
<!-- DownsampleFactorMax{(1, 2), (1, 2), True, (0, 0)} id=10 -->
<g id="node19" class="node"><title>DownsampleFactorMax{(1, 2), (1, 2), True, (0, 0)} id=10</title>
<ellipse fill="none" stroke="black" cx="581" cy="-546" rx="218.071" ry="18"/>
<text text-anchor="middle" x="581" y="-542.3" font-family="Times,serif" font-size="14.00">DownsampleFactorMax{(1, 2), (1, 2), True, (0, 0)} id=10</text>
</g>
<!-- ConvOp{(&#39;imshp&#39;, (24, 1, 13)),(&#39;kshp&#39;, (1, 12)),(&#39;nkern&#39;, 24),(&#39;bsi...&#45;&gt;DownsampleFactorMax{(1, 2), (1, 2), True, (0, 0)} id=10 -->
<g id="edge16" class="edge"><title>ConvOp{(&#39;imshp&#39;, (24, 1, 13)),(&#39;kshp&#39;, (1, 12)),(&#39;nkern&#39;, 24),(&#39;bsi...&#45;&gt;DownsampleFactorMax{(1, 2), (1, 2), True, (0, 0)} id=10</title>
<path fill="none" stroke="black" d="M584.191,-615.597C583.639,-603.746 582.898,-587.817 582.269,-574.292"/>
<polygon fill="black" stroke="black" points="585.756,-573.911 581.795,-564.084 578.763,-574.236 585.756,-573.911"/>
<text text-anchor="middle" x="715.5" y="-586.3" font-family="Times,serif" font-size="14.00">TensorType(float32, (False, False, True, False))</text>
</g>
<!-- TensorType(float32, 4D) id=16 -->
<g id="node18" class="node"><title>TensorType(float32, 4D) id=16</title>
<polygon fill="green" stroke="black" points="828.25,-740 639.75,-740 639.75,-704 828.25,-704 828.25,-740"/>
<text text-anchor="middle" x="734" y="-718.3" font-family="Times,serif" font-size="14.00">TensorType(float32, 4D) id=16</text>
</g>
<!-- TensorType(float32, 4D) id=16&#45;&gt;ConvOp{(&#39;imshp&#39;, (24, 1, 13)),(&#39;kshp&#39;, (1, 12)),(&#39;nkern&#39;, 24),(&#39;bsi... -->
<g id="edge15" class="edge"><title>TensorType(float32, 4D) id=16&#45;&gt;ConvOp{(&#39;imshp&#39;, (24, 1, 13)),(&#39;kshp&#39;, (1, 12)),(&#39;nkern&#39;, 24),(&#39;bsi...</title>
<path fill="none" stroke="black" d="M730.55,-703.563C727.483,-692.466 721.892,-678.61 712,-670 705.096,-663.99 697.246,-659.004 688.915,-654.869"/>
<polygon fill="black" stroke="black" points="690.262,-651.637 679.709,-650.707 687.379,-658.015 690.262,-651.637"/>
<text text-anchor="middle" x="798" y="-674.3" font-family="Times,serif" font-size="14.00">1 TensorType(float32, 4D)</text>
</g>
<!-- DownsampleFactorMax{(1, 2), (1, 2), True, (0, 0)} id=10&#45;&gt;Elemwise{Add}[(0, 0)] id=11 -->
<g id="edge17" class="edge"><title>DownsampleFactorMax{(1, 2), (1, 2), True, (0, 0)} id=10&#45;&gt;Elemwise{Add}[(0, 0)] id=11</title>
<path fill="none" stroke="red" d="M570.712,-527.786C563.075,-516.491 551.645,-502.321 538,-494 522.125,-484.32 503.843,-477.313 485.564,-472.243"/>
<polygon fill="red" stroke="red" points="486.282,-468.813 475.724,-469.692 484.526,-475.589 486.282,-468.813"/>
<text text-anchor="middle" x="694" y="-498.3" font-family="Times,serif" font-size="14.00">0 TensorType(float32, (False, False, True, False))</text>
</g>
<!-- Flatten{2} -->
<g id="node21" class="node"><title>Flatten{2}</title>
<ellipse fill="none" stroke="black" cx="385" cy="-370" rx="48.1437" ry="18"/>
<text text-anchor="middle" x="385" y="-366.3" font-family="Times,serif" font-size="14.00">Flatten{2}</text>
</g>
<!-- Elemwise{Add}[(0, 0)] id=11&#45;&gt;Flatten{2} -->
<g id="edge19" class="edge"><title>Elemwise{Add}[(0, 0)] id=11&#45;&gt;Flatten{2}</title>
<path fill="none" stroke="blue" d="M385,-439.597C385,-427.746 385,-411.817 385,-398.292"/>
<polygon fill="blue" stroke="blue" points="388.5,-398.084 385,-388.084 381.5,-398.084 388.5,-398.084"/>
<text text-anchor="middle" x="516.5" y="-410.3" font-family="Times,serif" font-size="14.00">TensorType(float32, (False, False, True, False))</text>
</g>
<!-- Elemwise{Tanh}[(0, 0)] id=13 -->
<g id="node22" class="node"><title>Elemwise{Tanh}[(0, 0)] id=13</title>
<ellipse fill="#ffaabb" stroke="black" cx="385" cy="-282" rx="121.309" ry="18"/>
<text text-anchor="middle" x="385" y="-278.3" font-family="Times,serif" font-size="14.00">Elemwise{Tanh}[(0, 0)] id=13</text>
</g>
<!-- Flatten{2}&#45;&gt;Elemwise{Tanh}[(0, 0)] id=13 -->
<g id="edge20" class="edge"><title>Flatten{2}&#45;&gt;Elemwise{Tanh}[(0, 0)] id=13</title>
<path fill="none" stroke="red" d="M385,-351.597C385,-339.746 385,-323.817 385,-310.292"/>
<polygon fill="red" stroke="red" points="388.5,-310.084 385,-300.084 381.5,-310.084 388.5,-310.084"/>
<text text-anchor="middle" x="463.5" y="-322.3" font-family="Times,serif" font-size="14.00">TensorType(float32, matrix)</text>
</g>
<!-- Dot22 -->
<g id="node23" class="node"><title>Dot22</title>
<ellipse fill="none" stroke="black" cx="629" cy="-194" rx="32.2457" ry="18"/>
<text text-anchor="middle" x="629" y="-190.3" font-family="Times,serif" font-size="14.00">Dot22</text>
</g>
<!-- Elemwise{Tanh}[(0, 0)] id=13&#45;&gt;Dot22 -->
<g id="edge21" class="edge"><title>Elemwise{Tanh}[(0, 0)] id=13&#45;&gt;Dot22</title>
<path fill="none" stroke="black" d="M404.434,-264.095C418.431,-252.791 438.256,-238.484 458,-230 499.938,-211.979 551.726,-203.048 587.253,-198.748"/>
<polygon fill="black" stroke="black" points="587.734,-202.216 597.274,-197.606 586.942,-195.261 587.734,-202.216"/>
<text text-anchor="middle" x="541.5" y="-234.3" font-family="Times,serif" font-size="14.00">0 TensorType(float32, matrix)</text>
</g>
<!-- Dot22&#45;&gt;Elemwise{Add}[(0, 0)] id=15 -->
<g id="edge23" class="edge"><title>Dot22&#45;&gt;Elemwise{Add}[(0, 0)] id=15</title>
<path fill="none" stroke="red" d="M627.164,-175.669C626.961,-164.894 628.529,-151.36 636,-142 641.145,-135.553 647.613,-130.294 654.729,-126.003"/>
<polygon fill="red" stroke="red" points="656.842,-128.845 664.039,-121.07 653.564,-122.659 656.842,-128.845"/>
<text text-anchor="middle" x="719.5" y="-146.3" font-family="Times,serif" font-size="14.00">0 TensorType(float32, matrix)</text>
</g>
<!-- TensorType(float32, matrix) id=22 -->
<g id="node24" class="node"><title>TensorType(float32, matrix) id=22</title>
<polygon fill="green" stroke="black" points="733.25,-300 524.75,-300 524.75,-264 733.25,-264 733.25,-300"/>
<text text-anchor="middle" x="629" y="-278.3" font-family="Times,serif" font-size="14.00">TensorType(float32, matrix) id=22</text>
</g>
<!-- TensorType(float32, matrix) id=22&#45;&gt;Dot22 -->
<g id="edge22" class="edge"><title>TensorType(float32, matrix) id=22&#45;&gt;Dot22</title>
<path fill="none" stroke="black" d="M629,-263.597C629,-251.746 629,-235.817 629,-222.292"/>
<polygon fill="black" stroke="black" points="632.5,-222.084 629,-212.084 625.5,-222.084 632.5,-222.084"/>
<text text-anchor="middle" x="712.5" y="-234.3" font-family="Times,serif" font-size="14.00">1 TensorType(float32, matrix)</text>
</g>
<!-- TensorType(float32, matrix) id=24 -->
<g id="node26" class="node"><title>TensorType(float32, matrix) id=24</title>
<polygon fill="blue" stroke="black" points="833.25,-36 624.75,-36 624.75,-0 833.25,-0 833.25,-36"/>
<text text-anchor="middle" x="729" y="-14.3" font-family="Times,serif" font-size="14.00">TensorType(float32, matrix) id=24</text>
</g>
<!-- Elemwise{Add}[(0, 0)] id=15&#45;&gt;TensorType(float32, matrix) id=24 -->
<g id="edge25" class="edge"><title>Elemwise{Add}[(0, 0)] id=15&#45;&gt;TensorType(float32, matrix) id=24</title>
<path fill="none" stroke="black" d="M729,-87.5966C729,-75.7459 729,-59.8169 729,-46.2917"/>
<polygon fill="black" stroke="black" points="732.5,-46.084 729,-36.084 725.5,-46.084 732.5,-46.084"/>
<text text-anchor="middle" x="807.5" y="-58.3" font-family="Times,serif" font-size="14.00">TensorType(float32, matrix)</text>
</g>
</g>
</svg>
